# xmcd
#
# Track frame offsets:
#	150
#	12671
#	25070
#	37757
#	50115
#	59830
#	71295
#	88465
#	101690
#	120850
#	134419
#	149351
#	161271
#	174279
#	185204
#	198391
#	213902
#	225535
#	239646
#	252375
#	263162
#	274911
#	284943
#	298569
#	314508
#
# Disc length: 4260 seconds
#
# Revision: 0
# Processed by: cddbd v1.5.2PL0 Copyright (c) Steve Scherf et al.
# Submitted via: audiograbber 1.83.01
#
DISCID=8810a219
DTITLE=Various Artist - Dave Hamilton's Detroit Soul
DYEAR=2011
DGENRE=Oldies
TTITLE0=The Dave Hamilton Band - You Got Me Turned Around (Instrumental)
TTITLE1=Dave Hamilton - Take Care Of Your Own Business
TTITLE2=Bobby Dee - Sweet Thing
TTITLE3=Priscilla Page - I'm Pretending
TTITLE4=Ortheia Barnes - Never Ever Leave Me
TTITLE5=J. T. Rhythm - My Sweet Baby
TTITLE6=Chicago Pete - I'm Begging You
TTITLE7=The Moderations - All Because Of You
TTITLE8=Nightchill - I Don't Play Games
TTITLE9=The New Experience - Here I Am (Come And Take Me)
TTITLE10=Romeo and Juliet - You Got What It Takes
TTITLE11=Dave Hamilton - Soul Suite
TTITLE12=Billy Garner - You're Wasting My Time
TTITLE13=Chico and Buddy - A Thing Called The Jones
TTITLE14=The Webb People - I'm Sending Vibrations
TTITLE15=O. C. Tolbert - Too Late
TTITLE16=Emanuel Taylor - The Pride Of A Man
TTITLE17=Billy Soul - You Gotta Show Me
TTITLE18=Gene Cooper - Look Up And Smile
TTITLE19=Frenchy and The Dressmen - Beetle Bebop
TTITLE20=Harry Reid - Won't You Come On Home
TTITLE21=Charmaine - Don't You Listen
TTITLE22=Priscilla Page and Rony Darrel - Shoo-Be-Doo-Be
TTITLE23=Sue Ann Jones - Missing You
TTITLE24=TCB Studio House Band - TCB Recording Studios Jingle
EXTD=
EXTT0=
EXTT1=
EXTT2=
EXTT3=
EXTT4=
EXTT5=
EXTT6=
EXTT7=
EXTT8=
EXTT9=
EXTT10=
EXTT11=
EXTT12=
EXTT13=
EXTT14=
EXTT15=
EXTT16=
EXTT17=
EXTT18=
EXTT19=
EXTT20=
EXTT21=
EXTT22=
EXTT23=
EXTT24=
PLAYORDER=
